<svg width="2109" height="1200" viewBox="0 0 2109 1200" fill="none" xmlns="http://www.w3.org/2000/svg">
<rect width="2109" height="1200" fill="#FFD466"/>
<path d="M424 0H1624V1200H424V0Z" fill="#FFD466"/>
<path d="M1023.59 322.111C1023.59 483.867 1029.18 645.875 1001.93 805.98C999.567 819.865 997.579 833.6 994.769 847.396C992.769 857.214 990.393 866.953 988.211 876.731C986.893 882.639 987.439 887.795 981.654 884.324" stroke="black" stroke-width="3" stroke-linecap="round"/>
<path d="M922.637 444.804C942.257 444.804 961.965 444.409 981.481 446.875C1007.65 450.182 1048.38 457.398 1063.45 482.768C1076.79 505.224 1066.28 541.001 1040.5 547.825C1040.24 547.894 1028.21 550.437 1030.14 546.962C1033.83 540.324 1051.18 536.395 1057.75 534.02C1071.83 528.937 1087.47 527.271 1102.1 531.086C1118.77 535.432 1133.74 544.277 1147.92 553.778C1162.75 563.72 1179.88 575.369 1189.08 591.225C1199.36 608.95 1201.34 634.121 1196.32 653.779C1191.87 671.231 1177.74 684.283 1164.57 695.626C1146.6 711.114 1126.04 721.599 1105.3 732.813C1087.95 742.195 1070.22 751.523 1050.25 753.521C1032 755.346 1013 753.866 994.682 753.866C984.029 753.866 968.909 756.564 958.789 752.227C950.233 748.56 946.902 746.638 950.592 738.335" stroke="black" stroke-width="3" stroke-linecap="round"/>
<path d="M913.318 326.771C885.277 326.771 857.235 326.771 829.194 326.771C810.004 326.771 789.792 325.379 770.608 327.116C760.331 328.046 755.865 332.932 750.332 341.266C731.925 368.99 718.403 401.218 706.156 431.948C680.687 495.853 661.247 566.591 659.736 635.832C659.317 655.037 661.279 674.274 671.211 691.225C690.449 724.058 726.171 749.113 756.458 770.432C841.353 830.188 935.324 875.381 1032.73 910.727C1071.25 924.702 1110.43 936.781 1150.77 944.204C1175.44 948.744 1207.84 955.863 1231.53 943.168C1261.4 927.155 1284.51 889.803 1303.4 863.444C1346.54 803.243 1386.72 736.938 1392.7 661.372C1397.98 594.661 1375.65 536.052 1343 478.972C1309.8 420.927 1265.59 368.245 1206.68 335.14C1151.6 304.195 1093.8 291.515 1031.01 296.054C992.376 298.847 955.51 317.452 916.511 317.452C901.71 317.452 883.955 314.298 869.832 319.005" stroke="black" stroke-width="3" stroke-linecap="round"/>
<path d="M876.045 395.106C911.615 395.106 947.209 394.695 982.775 395.192C1022.53 395.748 1051.77 412.132 1086.14 430.74C1102.51 439.601 1118.71 449.299 1132.82 461.543C1137.74 465.816 1146.5 473.081 1143.26 480.698C1138.78 491.241 1118.54 508.915 1106.68 509.947C1104.36 510.148 1093.63 508.123 1099.6 504.425C1126.33 487.881 1162.21 490.148 1190.02 500.456C1221.91 512.271 1250.8 525.046 1264.66 557.92C1277.11 587.451 1277.04 622.272 1274.24 653.779C1271.88 680.23 1269.06 709.55 1258.1 734.021C1250.22 751.626 1231.81 767.54 1216.69 779.06C1205.51 787.578 1190.33 792.061 1177.51 797.697C1151.45 809.157 1125.13 817.568 1096.58 819.958C1069.93 822.189 1040.47 822.734 1013.92 819.095C992.306 816.131 971.093 816.779 949.384 815.644C930.407 814.652 909.374 815.87 890.713 812.538C883.128 811.183 889.258 804.908 891.575 802.011" stroke="black" stroke-width="3" stroke-linecap="round"/>
<path d="M1087.26 346.961C1087.26 501.305 1088.11 655.622 1088.82 809.949C1088.93 834.998 1090.37 860.012 1090.37 885.101C1090.37 889.752 1088.82 893.348 1088.82 897.525C1088.82 900.348 1085.06 914.811 1088.82 909.173" stroke="black" stroke-width="3" stroke-linecap="round"/>
<path d="M879.151 378.022C879.151 451.993 878.853 525.97 879.237 599.939C879.484 647.533 881.063 694.812 885.277 742.218C887.29 764.866 888.469 787.387 888.469 810.122C888.469 825.222 886.614 841.291 879.496 854.816C877.326 858.94 874.876 860.259 877.598 854.816" stroke="black" stroke-width="3" stroke-linecap="round"/>
<path d="M941.274 427.72V780.268" stroke="black" stroke-width="3" stroke-linecap="round"/>
</svg>
